<?xml version="1.0" encoding="utf-8"?>
<!-- Generator: Adobe Illustrator 19.0.0, SVG Export Plug-In . SVG Version: 6.00 Build 0)  -->
<svg version="1.1" id="Capa_1" xmlns="http://www.w3.org/2000/svg" xmlns:xlink="http://www.w3.org/1999/xlink" x="0px" y="0px"
	 viewBox="0 0 140 22" style="enable-background:new 0 0 140 22;" xml:space="preserve">
<style type="text/css">
	.st0{fill:#A68A4B;}
</style>
<polygon id="XMLID_2310_" class="st0" points="11.8,0.3 15.2,7.2 22.9,8.3 17.4,13.7 18.7,21.2 11.8,17.7 5,21.2 6.3,13.7 0.8,8.3 
	8.4,7.2 "/>
<polygon id="XMLID_2309_" class="st0" points="40.8,0.3 44.2,7.2 51.9,8.3 46.4,13.7 47.7,21.2 40.8,17.7 34,21.2 35.3,13.7 
	29.8,8.3 37.4,7.2 "/>
<polygon id="XMLID_2308_" class="st0" points="69.8,0.3 73.2,7.2 80.9,8.3 75.4,13.7 76.7,21.2 69.8,17.7 63,21.2 64.3,13.7 
	58.8,8.3 66.4,7.2 "/>
<polygon id="XMLID_2307_" class="st0" points="98.8,0.3 102.2,7.2 109.9,8.3 104.4,13.7 105.7,21.2 98.8,17.7 92,21.2 93.3,13.7 
	87.8,8.3 95.4,7.2 "/>
<polygon id="XMLID_2306_" class="st0" points="127.8,0.3 131.3,7.2 138.9,8.3 133.4,13.7 134.7,21.2 127.8,17.7 121,21.2 
	122.3,13.7 116.8,8.3 124.4,7.2 "/>
</svg>
