<?xml version="1.0" encoding="utf-8"?>
<!-- Generator: Adobe Illustrator 19.0.0, SVG Export Plug-In . SVG Version: 6.00 Build 0)  -->
<svg version="1.1" id="Capa_1" xmlns="http://www.w3.org/2000/svg" xmlns:xlink="http://www.w3.org/1999/xlink" x="0px" y="0px"
	 viewBox="0 0 50 50" style="enable-background:new 0 0 50 50;" xml:space="preserve">
<style type="text/css">
	.st0{fill:#A68A4B;}
	.st1{fill-rule:evenodd;clip-rule:evenodd;fill:#A68A4B;}
</style>
<g id="XMLID_2084_">
	<polygon id="XMLID_2128_" class="st0" points="-32.5,36.7 -28.7,33 -23.6,33 -33,42.6 -34.7,38.9 	"/>
	<polygon id="XMLID_2127_" class="st0" points="-18.7,32 -34.7,48 -31.5,51.2 -14.2,33.8 	"/>
	<polygon id="XMLID_2126_" class="st0" points="-17.4,40.4 -27.4,50.5 -22.4,50.5 -15.9,44.2 -15.9,39.9 	"/>
	<path id="XMLID_2123_" class="st0" d="M-36.2,29.9v22.6h22.6V29.9H-36.2z M-17.4,48.7h-15v-15h15V48.7z"/>
	<path id="XMLID_2120_" class="st0" d="M-62.6,29.9v22.6H-40V29.9H-62.6z M-43.8,48.7h-15v-15h15V48.7z"/>
	<rect id="XMLID_2093_" x="-62.6" y="3.6" class="st0" width="22.6" height="22.6"/>
	<path id="XMLID_2090_" class="st0" d="M-36.2,3.6v22.6h22.6V3.6H-36.2z M-17.4,22.4h-15v-15h15V22.4z"/>
	<ellipse id="XMLID_2089_" class="st0" cx="-56.8" cy="35.7" rx="3.6" ry="3.7"/>
	<ellipse id="XMLID_2088_" class="st0" cx="-45.8" cy="35.7" rx="3.6" ry="3.7"/>
	<ellipse id="XMLID_2087_" class="st0" cx="-45.8" cy="46.2" rx="3.6" ry="3.7"/>
	<ellipse id="XMLID_2086_" class="st0" cx="-56.8" cy="46.8" rx="3.6" ry="3.7"/>
	<ellipse id="XMLID_2085_" class="st0" cx="-51.7" cy="41.2" rx="3.6" ry="3.7"/>
</g>
<path id="XMLID_2374_" class="st1" d="M-58.7,3.3v48.6h47.2V3.3H-58.7z M-25.9,28.7l-15.7,11.4c-0.4,0.2-0.9,0.2-1.3,0
	c-0.4-0.2-0.6-0.7-0.6-1.1V16.2c0-0.5,0.2-0.9,0.6-1.2c0.2-0.1,0.5-0.1,0.7-0.1c0.2,0,0.4,0,0.6,0.1l15.7,11.4
	c0.4,0.3,0.7,0.7,0.7,1.2C-25.2,28-25.6,28.5-25.9,28.7z"/>
<path id="XMLID_3_" class="st1" d="M-10.3-5.3h-47.1v49h47.1V-5.3z M-37.2,14.1v9.8l6.5-4.6L-37.2,14.1z M-15.5,21.4v6l-5,0v-6
	H-15.5z M-15.5,10.5v5.9h-5v-5.9H-15.5z M-20.5,5.5v-5.7h5v5.7H-20.5z M-20.5,37.9v-5.7h5v5.7H-20.5z M-52.5,6.1V0.3h5v5.8H-52.5z
	 M-52.5,16.8V11h5v5.7H-52.5z M-52.5,27.5v-5.8h5v5.8H-52.5z M-52.6,38.4v-5.8l5,0v5.7L-52.6,38.4z"/>
<g id="XMLID_2129_">
	<path id="XMLID_2130_" class="st1" d="M0.9,3.7v19.6v2.6v19.8c7.3,0,17.1,0,22.3,0V25.9v-2.6V3.7C18,3.7,8.2,3.7,0.9,3.7L0.9,3.7z
		 M26.9,3.7v19.6v2.6v19.8c7.6,0,17.3,0,22.3,0V25.9v-2.6V3.7C44.2,3.7,34.4,3.7,26.9,3.7L26.9,3.7z M31.9,25.9H32h0.4h0.2h0.4h0.4
		h0.4H34h0.4h0.4h0.4h0.4h0.2h0.4h0.4H37h0.4h0.4h0.4h0.4H39h0.4h0.4h0.4h0.2h0.4h0.4h0.4H42h0.4h0.4h0.4h0.4H44h0.2v7.1H31.9V25.9z
		 M29.9,26.9h-2v2h2V26.9z M29.9,31.3h-2v2.2h2V31.3z M29.9,35.8h-2v2h2V35.8z M29.9,40.2h-2v2.2h2V40.2z M44.2,43.2V36H31.9v7.2
		H44.2z M48.2,26.9h-2v2h2V26.9z M48.2,31.3h-2v2.2h2V31.3z M48.2,35.8h-2v2h2V35.8z M48.2,40.2h-2v2.2h2V40.2z M29.9,22.6h-2v-2h2
		V22.6z M29.9,18h-2v-2h2V18z M29.9,13.6h-2v-2h2V13.6z M29.9,9.1h-2v-2h2V9.1z M44.2,6.3v7.2H31.9V6.3H44.2z M31.9,23.3v-6.9h12.3
		v6.9H44h-0.4h-0.4h-0.4h-0.4H42h-0.4h-0.4h-0.4h-0.4h-0.2h-0.4h-0.4H39h-0.4h-0.4h-0.4h-0.4H37h-0.4h-0.4h-0.4h-0.2h-0.4h-0.4h-0.4
		H34h-0.2h-0.4h-0.4h-0.4h-0.2H32H31.9z M48.2,22.6h-2v-2h2V22.6z M48.2,18h-2v-2h2V18z M48.2,13.6h-2v-2h2V13.6z M48.2,9.1h-2v-2h2
		V9.1z M5.6,25.9H6h0.2h0.4H7h0.2h0.4H8h0.4h0.4H9h0.4h0.4h0.4h0.4H11h0.4h0.4H12h0.4h0.4h0.4h0.4H14h0.4h0.4h0.4h0.4H16h0.4h0.4
		h0.4h0.4H18h0.2v7.1H5.6V25.9z M3.8,26.9H1.7v2h2.2V26.9z M3.8,31.3H1.7v2.2h2.2V31.3z M3.8,35.8H1.7v2h2.2V35.8z M3.8,40.2H1.7
		v2.2h2.2V40.2z M18.1,43.2V36H5.6v7.2H18.1z M22.1,26.9h-2v2h2V26.9z M22.1,31.3h-2v2.2h2V31.3z M22.1,35.8h-2v2h2V35.8z
		 M22.1,40.2h-2v2.2h2V40.2z M3.8,22.6H1.7v-2h2.2V22.6z M3.8,18H1.7v-2h2.2V18z M3.8,13.6H1.7v-2h2.2V13.6z M3.8,9.1H1.7v-2h2.2
		V9.1z M18.1,6.3v7.2H5.6V6.3H18.1z M5.6,23.3v-6.9h12.5v6.9H18h-0.4h-0.4h-0.4h-0.4H16h-0.4h-0.4h-0.4h-0.4H14h-0.4h-0.4h-0.4h-0.4
		H12h-0.2h-0.4H11h-0.4h-0.4H9.8H9.4H9H8.8H8.4H8H7.6H7.2H7H6.6H6.2H6H5.6z M22.1,22.6h-2v-2h2V22.6z M22.1,18h-2v-2h2V18z
		 M22.1,13.6h-2v-2h2V13.6z M22.1,9.1h-2v-2h2V9.1z"/>
</g>
</svg>
