<?xml version="1.0" encoding="utf-8"?>
<!-- Generator: Adobe Illustrator 19.0.0, SVG Export Plug-In . SVG Version: 6.00 Build 0)  -->
<svg version="1.1" id="Capa_1" xmlns="http://www.w3.org/2000/svg" xmlns:xlink="http://www.w3.org/1999/xlink" x="0px" y="0px"
	 viewBox="0 0 50 50" style="enable-background:new 0 0 50 50;" xml:space="preserve">
<style type="text/css">
	.st0{fill-rule:evenodd;clip-rule:evenodd;fill:#A68A4B;}
</style>
<path id="XMLID_3_" class="st0" d="M47.9,0.7H1.5V49h46.4V0.7z M21.3,19.7v9.6l6.4-4.6L21.3,19.7z M42.7,26.9v5.9l-4.9,0v-5.9H42.7z
	 M42.7,16.2V22h-4.9v-5.8H42.7z M37.8,11.2V5.6h4.9v5.7H37.8z M37.8,43.2v-5.7h4.9v5.7H37.8z M6.2,11.8V6.1h4.9v5.7H6.2z M6.2,22.4
	v-5.7h4.9v5.7H6.2z M6.2,33v-5.7h4.9V33H6.2z M6.2,43.7v-5.7l5,0v5.7L6.2,43.7z"/>
</svg>
