<?xml version="1.0" encoding="utf-8"?>
<!-- Generator: Adobe Illustrator 19.0.0, SVG Export Plug-In . SVG Version: 6.00 Build 0)  -->
<svg version="1.1" id="Capa_1" xmlns="http://www.w3.org/2000/svg" xmlns:xlink="http://www.w3.org/1999/xlink" x="0px" y="0px"
	 viewBox="0 0 50 50" style="enable-background:new 0 0 50 50;" xml:space="preserve">
<style type="text/css">
	.st0{fill:#A68A4B;}
</style>
<g id="XMLID_2084_">
	<polygon id="XMLID_2128_" class="st0" points="30.6,33.6 34.4,30 39.5,30 30.1,39.5 28.4,35.8 	"/>
	<polygon id="XMLID_2127_" class="st0" points="44.4,28.9 28.4,44.9 31.7,48.1 48.9,30.7 	"/>
	<polygon id="XMLID_2126_" class="st0" points="45.7,37.4 35.8,47.5 40.7,47.5 47.2,41.2 47.2,36.8 	"/>
	<path id="XMLID_2123_" class="st0" d="M26.9,26.9v22.6h22.6V26.9H26.9z M45.7,45.7h-15v-15h15V45.7z"/>
	<path id="XMLID_2120_" class="st0" d="M0.6,26.9v22.6h22.6V26.9H0.6z M19.4,45.7h-15v-15h15V45.7z"/>
	<rect id="XMLID_2093_" x="0.6" y="0.6" class="st0" width="22.6" height="22.6"/>
	<path id="XMLID_2090_" class="st0" d="M26.9,0.6v22.6h22.6V0.6H26.9z M45.7,19.4h-15v-15h15V19.4z"/>
	<ellipse id="XMLID_2089_" class="st0" cx="6.3" cy="32.7" rx="3.6" ry="3.7"/>
	<ellipse id="XMLID_2088_" class="st0" cx="17.3" cy="32.7" rx="3.6" ry="3.7"/>
	<ellipse id="XMLID_2087_" class="st0" cx="17.3" cy="43.2" rx="3.6" ry="3.7"/>
	<ellipse id="XMLID_2086_" class="st0" cx="6.3" cy="43.7" rx="3.6" ry="3.7"/>
	<ellipse id="XMLID_2085_" class="st0" cx="11.5" cy="38.2" rx="3.6" ry="3.7"/>
</g>
</svg>
