<?xml version="1.0" encoding="utf-8"?>
<!-- Generator: Adobe Illustrator 19.0.0, SVG Export Plug-In . SVG Version: 6.00 Build 0)  -->
<svg version="1.1" id="Capa_1" xmlns="http://www.w3.org/2000/svg" xmlns:xlink="http://www.w3.org/1999/xlink" x="0px" y="0px"
	 viewBox="0 0 50 50" style="enable-background:new 0 0 50 50;" xml:space="preserve">
<style type="text/css">
	.st0{fill:#A68A4A;}
</style>
<path id="XMLID_45_" class="st0" d="M1.5,1v48.3h46.9V1H1.5z M40,13.3c-0.1,0-0.1,0-0.2,0l-7.4,13.9c0.5,0.6,0.7,1.4,0.7,2.2
	c0,2-1.6,3.7-3.7,3.7c-2,0-3.7-1.6-3.7-3.7c0-0.4,0.1-0.7,0.2-1l-5.5-5c-0.4,0.2-0.9,0.3-1.4,0.3c-0.1,0-0.2,0-0.3,0l-7.2,12.6
	c0.4,0.6,0.7,1.3,0.7,2.1c0,2-1.6,3.7-3.7,3.7c-2,0-3.7-1.6-3.7-3.7s1.6-3.7,3.7-3.7c0.1,0,0.2,0,0.3,0L16.1,22
	c-0.4-0.6-0.7-1.3-0.7-2.1c0-2,1.6-3.7,3.7-3.7s3.7,1.6,3.7,3.7c0,0.4-0.1,0.7-0.2,1l5.5,5c0.4-0.2,0.9-0.3,1.4-0.3
	c0.1,0,0.1,0,0.2,0l7.4-13.9c-0.5-0.6-0.7-1.4-0.7-2.2C36.4,7.6,38,6,40,6c2,0,3.7,1.6,3.7,3.7C43.7,11.6,42,13.3,40,13.3z"/>
</svg>
