<?xml version="1.0" encoding="utf-8"?>
<!-- Generator: Adobe Illustrator 19.0.0, SVG Export Plug-In . SVG Version: 6.00 Build 0)  -->
<svg version="1.1" id="Capa_1" xmlns="http://www.w3.org/2000/svg" xmlns:xlink="http://www.w3.org/1999/xlink" x="0px" y="0px"
	 viewBox="0 0 50 50" style="enable-background:new 0 0 50 50;" xml:space="preserve">
<style type="text/css">
	.st0{fill:#A68A4B;}
	.st1{fill-rule:evenodd;clip-rule:evenodd;fill:#A68A4B;}
</style>
<g id="XMLID_2084_">
	<polygon id="XMLID_2128_" class="st0" points="-32.5,36.7 -28.7,33 -23.6,33 -33,42.6 -34.7,38.9 	"/>
	<polygon id="XMLID_2127_" class="st0" points="-18.7,32 -34.7,48 -31.5,51.2 -14.2,33.8 	"/>
	<polygon id="XMLID_2126_" class="st0" points="-17.4,40.4 -27.4,50.5 -22.4,50.5 -15.9,44.2 -15.9,39.9 	"/>
	<path id="XMLID_2123_" class="st0" d="M-36.2,29.9v22.6h22.6V29.9H-36.2z M-17.4,48.7h-15v-15h15V48.7z"/>
	<path id="XMLID_2120_" class="st0" d="M-62.6,29.9v22.6H-40V29.9H-62.6z M-43.8,48.7h-15v-15h15V48.7z"/>
	<rect id="XMLID_2093_" x="-62.6" y="3.6" class="st0" width="22.6" height="22.6"/>
	<path id="XMLID_2090_" class="st0" d="M-36.2,3.6v22.6h22.6V3.6H-36.2z M-17.4,22.4h-15v-15h15V22.4z"/>
	<ellipse id="XMLID_2089_" class="st0" cx="-56.8" cy="35.7" rx="3.6" ry="3.7"/>
	<ellipse id="XMLID_2088_" class="st0" cx="-45.8" cy="35.7" rx="3.6" ry="3.7"/>
	<ellipse id="XMLID_2087_" class="st0" cx="-45.8" cy="46.2" rx="3.6" ry="3.7"/>
	<ellipse id="XMLID_2086_" class="st0" cx="-56.8" cy="46.8" rx="3.6" ry="3.7"/>
	<ellipse id="XMLID_2085_" class="st0" cx="-51.7" cy="41.2" rx="3.6" ry="3.7"/>
</g>
<path id="XMLID_2374_" class="st1" d="M1.4,0.9v48.6h47.2V0.9H1.4z M34.2,26.3L18.5,37.6c-0.4,0.2-0.9,0.2-1.3,0
	c-0.4-0.2-0.6-0.7-0.6-1.1V13.8c0-0.5,0.2-0.9,0.6-1.2c0.2-0.1,0.5-0.1,0.7-0.1c0.2,0,0.4,0,0.6,0.1L34.2,24
	c0.4,0.3,0.7,0.7,0.7,1.2C34.9,25.6,34.6,26.1,34.2,26.3z"/>
</svg>
