<?xml version="1.0" encoding="utf-8"?>
<!-- Generator: Adobe Illustrator 19.0.0, SVG Export Plug-In . SVG Version: 6.00 Build 0)  -->
<svg version="1.1" id="Capa_1" xmlns="http://www.w3.org/2000/svg" xmlns:xlink="http://www.w3.org/1999/xlink" x="0px" y="0px"
	 viewBox="0 0 50 50" style="enable-background:new 0 0 50 50;" xml:space="preserve">
<style type="text/css">
	.st0{fill:#A68A4B;}
	.st1{fill-rule:evenodd;clip-rule:evenodd;fill:#A68A4B;}
</style>
<g id="XMLID_2084_">
	<polygon id="XMLID_2128_" class="st0" points="-32.5,36.7 -28.7,33 -23.6,33 -33,42.6 -34.7,38.9 	"/>
	<polygon id="XMLID_2127_" class="st0" points="-18.7,32 -34.7,48 -31.5,51.2 -14.2,33.8 	"/>
	<polygon id="XMLID_2126_" class="st0" points="-17.4,40.4 -27.4,50.5 -22.4,50.5 -15.9,44.2 -15.9,39.9 	"/>
	<path id="XMLID_2123_" class="st0" d="M-36.2,29.9v22.6h22.6V29.9H-36.2z M-17.4,48.7h-15v-15h15V48.7z"/>
	<path id="XMLID_2120_" class="st0" d="M-62.6,29.9v22.6H-40V29.9H-62.6z M-43.8,48.7h-15v-15h15V48.7z"/>
	<rect id="XMLID_2093_" x="-62.6" y="3.6" class="st0" width="22.6" height="22.6"/>
	<path id="XMLID_2090_" class="st0" d="M-36.2,3.6v22.6h22.6V3.6H-36.2z M-17.4,22.4h-15v-15h15V22.4z"/>
	<ellipse id="XMLID_2089_" class="st0" cx="-56.8" cy="35.7" rx="3.6" ry="3.7"/>
	<ellipse id="XMLID_2088_" class="st0" cx="-45.8" cy="35.7" rx="3.6" ry="3.7"/>
	<ellipse id="XMLID_2087_" class="st0" cx="-45.8" cy="46.2" rx="3.6" ry="3.7"/>
	<ellipse id="XMLID_2086_" class="st0" cx="-56.8" cy="46.8" rx="3.6" ry="3.7"/>
	<ellipse id="XMLID_2085_" class="st0" cx="-51.7" cy="41.2" rx="3.6" ry="3.7"/>
</g>
<path id="XMLID_2374_" class="st1" d="M-58.7,3.3v48.6h47.2V3.3H-58.7z M-25.9,28.7l-15.7,11.4c-0.4,0.2-0.9,0.2-1.3,0
	c-0.4-0.2-0.6-0.7-0.6-1.1V16.2c0-0.5,0.2-0.9,0.6-1.2c0.2-0.1,0.5-0.1,0.7-0.1c0.2,0,0.4,0,0.6,0.1l15.7,11.4
	c0.4,0.3,0.7,0.7,0.7,1.2C-25.2,28-25.6,28.5-25.9,28.7z"/>
<path id="XMLID_3_" class="st1" d="M-10.3-5.3h-47.1v49h47.1V-5.3z M-37.2,14.1v9.8l6.5-4.6L-37.2,14.1z M-15.5,21.4v6l-5,0v-6
	H-15.5z M-15.5,10.5v5.9h-5v-5.9H-15.5z M-20.5,5.5v-5.7h5v5.7H-20.5z M-20.5,37.9v-5.7h5v5.7H-20.5z M-52.5,6.1V0.3h5v5.8H-52.5z
	 M-52.5,16.8V11h5v5.7H-52.5z M-52.5,27.5v-5.8h5v5.8H-52.5z M-52.6,38.4v-5.8l5,0v5.7L-52.6,38.4z"/>
<g id="XMLID_2129_">
	<path id="XMLID_2130_" class="st1" d="M-63.4,0.9v19.6v2.6v19.8c7.3,0,17.1,0,22.3,0V23.1v-2.6V0.9C-46.3,0.9-56,0.9-63.4,0.9
		L-63.4,0.9z M-37.3,0.9v19.6v2.6v19.8c7.6,0,17.3,0,22.3,0V23.1v-2.6V0.9C-20.1,0.9-29.8,0.9-37.3,0.9L-37.3,0.9z M-32.4,23.1h0.2
		h0.4h0.2h0.4h0.4h0.4h0.2h0.4h0.4h0.4h0.4h0.2h0.4h0.4h0.4h0.4h0.4h0.4h0.4h0.4h0.4h0.4h0.4h0.2h0.4h0.4h0.4h0.4h0.4h0.4h0.4h0.4
		h0.4h0.2v7.1h-12.3V23.1z M-34.4,24.1h-2v2h2V24.1z M-34.4,28.5h-2v2.2h2V28.5z M-34.4,33h-2v2h2V33z M-34.4,37.4h-2v2.2h2V37.4z
		 M-20.1,40.4v-7.2h-12.3v7.2H-20.1z M-16.1,24.1h-2v2h2V24.1z M-16.1,28.5h-2v2.2h2V28.5z M-16.1,33h-2v2h2V33z M-16.1,37.4h-2v2.2
		h2V37.4z M-34.4,19.7h-2v-2h2V19.7z M-34.4,15.2h-2v-2h2V15.2z M-34.4,10.8h-2v-2h2V10.8z M-34.4,6.2h-2v-2h2V6.2z M-20.1,3.4v7.2
		h-12.3V3.4H-20.1z M-32.4,20.5v-6.9h12.3v6.9h-0.2h-0.4H-21h-0.4h-0.4h-0.4h-0.4H-23h-0.4h-0.4H-24h-0.4h-0.4h-0.4h-0.4H-26h-0.4
		h-0.4h-0.4h-0.4H-28h-0.4h-0.2H-29h-0.4h-0.4h-0.4h-0.2h-0.4h-0.4h-0.4h-0.2h-0.4H-32.4z M-16.1,19.7h-2v-2h2V19.7z M-16.1,15.2h-2
		v-2h2V15.2z M-16.1,10.8h-2v-2h2V10.8z M-16.1,6.2h-2v-2h2V6.2z M-58.6,23.1h0.4h0.2h0.4h0.4h0.2h0.4h0.4h0.4h0.4h0.2h0.4h0.4h0.4
		h0.4h0.4h0.4h0.4h0.2h0.4h0.4h0.4h0.4h0.4h0.4h0.4h0.4h0.4h0.4h0.4h0.4h0.4h0.4h0.4h0.2v7.1h-12.5V23.1z M-60.4,24.1h-2.2v2h2.2
		V24.1z M-60.4,28.5h-2.2v2.2h2.2V28.5z M-60.4,33h-2.2v2h2.2V33z M-60.4,37.4h-2.2v2.2h2.2V37.4z M-46.1,40.4v-7.2h-12.5v7.2H-46.1
		z M-42.1,24.1h-2v2h2V24.1z M-42.1,28.5h-2v2.2h2V28.5z M-42.1,33h-2v2h2V33z M-42.1,37.4h-2v2.2h2V37.4z M-60.4,19.7h-2.2v-2h2.2
		V19.7z M-60.4,15.2h-2.2v-2h2.2V15.2z M-60.4,10.8h-2.2v-2h2.2V10.8z M-60.4,6.2h-2.2v-2h2.2V6.2z M-46.1,3.4v7.2h-12.5V3.4H-46.1z
		 M-58.6,20.5v-6.9h12.5v6.9h-0.2h-0.4h-0.4h-0.4h-0.4h-0.4h-0.4h-0.4h-0.4h-0.4h-0.4h-0.4H-51h-0.4h-0.4h-0.4h-0.2h-0.4h-0.4h-0.4
		H-54h-0.4h-0.4h-0.4h-0.2h-0.4h-0.4h-0.4H-57h-0.2h-0.4H-58h-0.2H-58.6z M-42.1,19.7h-2v-2h2V19.7z M-42.1,15.2h-2v-2h2V15.2z
		 M-42.1,10.8h-2v-2h2V10.8z M-42.1,6.2h-2v-2h2V6.2z"/>
</g>
<g id="XMLID_2076_">
	<path id="XMLID_2083_" class="st1" d="M-31.2,10.9v10.7c2.2,0,2.6-0.2,2.6-5.3C-28.6,11.1-29,10.9-31.2,10.9z"/>
	<path id="XMLID_2077_" class="st1" d="M-57.2-6v48h48V-6H-57.2z M-41.5,24.7H-46l-2.8-7.3v7.3h-3.7V7.9h3.7v7.3l2.8-7.3h4.5
		l-4.4,8.4L-41.5,24.7z M-36.4,24.7h-3.7V7.9h3.7V24.7z M-24.9,16.6c0-0.1,0-0.2,0-0.3c0,6.5-1,8.4-5.7,8.4H-35V7.9h4.4
		c4.7,0,5.6,1.9,5.7,8.4c0-0.1,0-0.2,0-0.3V16.6z M-13.9,20.2c0,2.8-0.4,4.8-4.7,4.8c-4,0-4.8-2.6-4.8-6h4.1c0,1.5,0,2.7,0.7,2.7
		c0.6,0,0.7-0.6,0.7-1.5c0-3.1-5.3-2.7-5.3-7.7c0-3.4,1-4.8,4.8-4.8c3.4,0,4.7,2.4,4.7,5.8h-4.1c0-2-0.1-2.6-0.7-2.6
		c-0.5,0-0.7,0.3-0.7,1.6C-19.3,15.5-13.9,15.3-13.9,20.2z"/>
</g>
<g id="XMLID_94_">
	<path id="XMLID_1929_" class="st0" d="M35.1,6.9H31c-0.4,0-0.7,0.3-0.7,0.7v2h3.4c0.4,0,0.7,0.3,0.7,0.7c0,0.4-0.3,0.7-0.7,0.7
		h-3.4v32.6h5.4v-36C35.8,7.2,35.5,6.9,35.1,6.9z M33.7,40.8h-1.4c-0.4,0-0.7-0.3-0.7-0.7c0-0.4,0.3-0.7,0.7-0.7h1.4
		c0.4,0,0.7,0.3,0.7,0.7C34.4,40.5,34.1,40.8,33.7,40.8z M33.7,38.1h-1.4c-0.4,0-0.7-0.3-0.7-0.7c0-0.4,0.3-0.7,0.7-0.7h1.4
		c0.4,0,0.7,0.3,0.7,0.7C34.4,37.8,34.1,38.1,33.7,38.1z M33.7,21.8h-1.4c-0.4,0-0.7-0.3-0.7-0.7c0-0.4,0.3-0.7,0.7-0.7h1.4
		c0.4,0,0.7,0.3,0.7,0.7C34.4,21.5,34.1,21.8,33.7,21.8z M33.7,19.1h-1.4c-0.4,0-0.7-0.3-0.7-0.7c0-0.4,0.3-0.7,0.7-0.7h1.4
		c0.4,0,0.7,0.3,0.7,0.7C34.4,18.8,34.1,19.1,33.7,19.1z M33.7,16.4h-1.4c-0.4,0-0.7-0.3-0.7-0.7c0-0.4,0.3-0.7,0.7-0.7h1.4
		c0.4,0,0.7,0.3,0.7,0.7C34.4,16.1,34.1,16.4,33.7,16.4z"/>
	<path id="XMLID_1908_" class="st0" d="M20.2,5.5h-6.8c-0.4,0-0.7,0.3-0.7,0.7v2h6.1c0.4,0,0.7,0.3,0.7,0.7c0,0.4-0.3,0.7-0.7,0.7
		h-6.1v34h8.2V6.2C20.8,5.8,20.6,5.5,20.2,5.5z M18.8,40.8h-4.1c-0.4,0-0.7-0.3-0.7-0.7c0-0.4,0.3-0.7,0.7-0.7h4.1
		c0.4,0,0.7,0.3,0.7,0.7C19.5,40.5,19.2,40.8,18.8,40.8z M18.8,38.1h-4.1c-0.4,0-0.7-0.3-0.7-0.7c0-0.4,0.3-0.7,0.7-0.7h4.1
		c0.4,0,0.7,0.3,0.7,0.7C19.5,37.8,19.2,38.1,18.8,38.1z M19.5,25.2c0,0.4-0.3,0.7-0.7,0.7h-4.1c-0.4,0-0.7-0.3-0.7-0.7v-9.5
		c0-0.4,0.3-0.7,0.7-0.7h4.1c0.4,0,0.7,0.3,0.7,0.7V25.2z"/>
	<rect id="XMLID_1906_" x="15.4" y="16.4" class="st0" width="2.7" height="8.2"/>
	<rect id="XMLID_1905_" x="24.9" y="16.4" class="st0" width="1.4" height="8.2"/>
	<path id="XMLID_98_" class="st0" d="M1,0.6v48h48v-48H1z M45.3,42.9c0,1.1-0.9,2-2,2H6.6c-1.1,0-2-0.9-2-2V10.3c0-1.1,0.9-2,2-2
		h2.7c0.4,0,0.7,0.3,0.7,0.7c0,0.4-0.3,0.7-0.7,0.7H6.6c-0.4,0-0.7,0.3-0.7,0.7v32.6c0,0.4,0.3,0.7,0.7,0.7h4.8V13.7H7.9
		c-0.4,0-0.7-0.3-0.7-0.7c0-0.4,0.3-0.7,0.7-0.7h3.4V6.2c0-1.1,0.9-2,2-2h6.8c1.1,0,2,0.9,2,2v0.7H27c0.4,0,0.7,0.3,0.7,0.7
		S27.3,8.2,27,8.2h-4.8v35.3H29v-36c0-1.1,0.9-2,2-2h4.1c1.1,0,2,0.9,2,2v6.1h4.1c0.4,0,0.7,0.3,0.7,0.7c0,0.4-0.3,0.7-0.7,0.7h-4.1
		v28.5h6.1c0.4,0,0.7-0.3,0.7-0.7V11.6c0-0.4-0.3-0.7-0.7-0.7h-4.1c-0.4,0-0.7-0.3-0.7-0.7c0-0.4,0.3-0.7,0.7-0.7h4.1
		c1.1,0,2,0.9,2,2V42.9z M9.3,38.1H7.9c-0.4,0-0.7-0.3-0.7-0.7c0-0.4,0.3-0.7,0.7-0.7h1.4c0.4,0,0.7,0.3,0.7,0.7
		C10,37.8,9.7,38.1,9.3,38.1z M10,40.2c0,0.4-0.3,0.7-0.7,0.7H7.9c-0.4,0-0.7-0.3-0.7-0.7c0-0.4,0.3-0.7,0.7-0.7h1.4
		C9.7,39.5,10,39.8,10,40.2z M9.3,24.5H7.9c-0.4,0-0.7-0.3-0.7-0.7c0-0.4,0.3-0.7,0.7-0.7h1.4c0.4,0,0.7,0.3,0.7,0.7
		C10,24.2,9.7,24.5,9.3,24.5z M9.3,21.8H7.9c-0.4,0-0.7-0.3-0.7-0.7c0-0.4,0.3-0.7,0.7-0.7h1.4c0.4,0,0.7,0.3,0.7,0.7
		C10,21.5,9.7,21.8,9.3,21.8z M27,38.1h-2.7c-0.4,0-0.7-0.3-0.7-0.7c0-0.4,0.3-0.7,0.7-0.7H27c0.4,0,0.7,0.3,0.7,0.7
		C27.6,37.8,27.3,38.1,27,38.1z M27.6,40.2c0,0.4-0.3,0.7-0.7,0.7h-2.7c-0.4,0-0.7-0.3-0.7-0.7c0-0.4,0.3-0.7,0.7-0.7H27
		C27.3,39.5,27.6,39.8,27.6,40.2z M27,25.9h-2.7c-0.4,0-0.7-0.3-0.7-0.7v-9.5c0-0.4,0.3-0.7,0.7-0.7H27c0.4,0,0.7,0.3,0.7,0.7v9.5
		C27.6,25.6,27.3,25.9,27,25.9z M41.9,38.1h-2.7c-0.4,0-0.7-0.3-0.7-0.7c0-0.4,0.3-0.7,0.7-0.7h2.7c0.4,0,0.7,0.3,0.7,0.7
		C42.6,37.8,42.3,38.1,41.9,38.1z M42.6,40.2c0,0.4-0.3,0.7-0.7,0.7h-2.7c-0.4,0-0.7-0.3-0.7-0.7c0-0.4,0.3-0.7,0.7-0.7h2.7
		C42.3,39.5,42.6,39.8,42.6,40.2z M38.5,27.9v-6.8c0-0.4,0.3-0.7,0.7-0.7c0.4,0,0.7,0.3,0.7,0.7v6.8c0,0.4-0.3,0.7-0.7,0.7
		C38.8,28.6,38.5,28.3,38.5,27.9z M41.9,28.6c-0.4,0-0.7-0.3-0.7-0.7v-6.8c0-0.4,0.3-0.7,0.7-0.7c0.4,0,0.7,0.3,0.7,0.7v6.8
		C42.6,28.3,42.3,28.6,41.9,28.6z"/>
</g>
</svg>
